<svg xmlns="http://www.w3.org/2000/svg" version="1.1" width="64" height="64">
<path d="M0 0 C6.6 0 13.2 0 20 0 C20 0.99 20 1.98 20 3 C20.99 3 21.98 3 23 3 C23 2.01 23 1.02 23 0 C26.96 0 30.92 0 35 0 C35 0.99 35 1.98 35 3 C35.99 3 36.98 3 38 3 C38 2.01 38 1.02 38 0 C44.6 0 51.2 0 58 0 C58 2.64 58 5.28 58 8 C56.68 8 55.36 8 54 8 C54 9.32 54 10.64 54 12 C52.68 12 51.36 12 50 12 C50 13.32 50 14.64 50 16 C48.68 16 47.36 16 46 16 C46 16.66 46 17.32 46 18 C47.32 18 48.64 18 50 18 C50 19.32 50 20.64 50 22 C51.32 22 52.64 22 54 22 C54 23.32 54 24.64 54 26 C55.32 26 56.64 26 58 26 C58 27.32 58 28.64 58 30 C58.99 30 59.98 30 61 30 C61 35.28 61 40.56 61 46 C60.01 46 59.02 46 58 46 C58 46.99 58 47.98 58 49 C55.03 49 52.06 49 49 49 C49 45.37 49 41.74 49 38 C48.01 38 47.02 38 46 38 C46 39.32 46 40.64 46 42 C45.01 42 44.02 42 43 42 C43 42.99 43 43.98 43 45 C43.99 45 44.98 45 46 45 C46 47.31 46 49.62 46 52 C47.32 52 48.64 52 50 52 C50 53.32 50 54.64 50 56 C51.32 56 52.64 56 54 56 C54 58.64 54 61.28 54 64 C48.72 64 43.44 64 38 64 C38 63.01 38 62.02 38 61 C36.68 61 35.36 61 34 61 C34 58.36 34 55.72 34 53 C30.7 53 27.4 53 24 53 C24 55.64 24 58.28 24 61 C22.68 61 21.36 61 20 61 C20 61.99 20 62.98 20 64 C14.72 64 9.44 64 4 64 C4 61.36 4 58.72 4 56 C5.32 56 6.64 56 8 56 C8 54.68 8 53.36 8 52 C9.32 52 10.64 52 12 52 C12 49.69 12 47.38 12 45 C12.99 45 13.98 45 15 45 C15 44.01 15 43.02 15 42 C14.01 42 13.02 42 12 42 C12 40.68 12 39.36 12 38 C11.01 38 10.02 38 9 38 C9 41.63 9 45.26 9 49 C6.03 49 3.06 49 0 49 C0 48.01 0 47.02 0 46 C-0.99 46 -1.98 46 -3 46 C-3 40.72 -3 35.44 -3 30 C-2.01 30 -1.02 30 0 30 C0 28.68 0 27.36 0 26 C1.32 26 2.64 26 4 26 C4 24.68 4 23.36 4 22 C5.32 22 6.64 22 8 22 C8 20.68 8 19.36 8 18 C9.32 18 10.64 18 12 18 C12 17.34 12 16.68 12 16 C10.68 16 9.36 16 8 16 C8 14.68 8 13.36 8 12 C6.68 12 5.36 12 4 12 C4 10.68 4 9.36 4 8 C2.68 8 1.36 8 0 8 C0 5.36 0 2.72 0 0 Z " fill="#027141" transform="translate(3,0)"/>
<path d="M0 0 C1.32 0 2.64 0 4 0 C4 0.99 4 1.98 4 3 C4.99 3 5.98 3 7 3 C7 2.01 7 1.02 7 0 C13.6 0 20.2 0 27 0 C27 0.99 27 1.98 27 3 C27.99 3 28.98 3 30 3 C30 2.01 30 1.02 30 0 C31.32 0 32.64 0 34 0 C34 1.32 34 2.64 34 4 C33.01 4 32.02 4 31 4 C31 4.99 31 5.98 31 7 C31.99 7 32.98 7 34 7 C34 9.31 34 11.62 34 14 C35.32 14 36.64 14 38 14 C38 15.32 38 16.64 38 18 C39.32 18 40.64 18 42 18 C42 20.64 42 23.28 42 26 C36.72 26 31.44 26 26 26 C26 25.01 26 24.02 26 23 C24.68 23 23.36 23 22 23 C22 20.36 22 17.72 22 15 C18.7 15 15.4 15 12 15 C12 17.64 12 20.28 12 23 C10.68 23 9.36 23 8 23 C8 23.99 8 24.98 8 26 C2.72 26 -2.56 26 -8 26 C-8 23.36 -8 20.72 -8 18 C-6.68 18 -5.36 18 -4 18 C-4 16.68 -4 15.36 -4 14 C-2.68 14 -1.36 14 0 14 C0 11.69 0 9.38 0 7 C0.99 7 1.98 7 3 7 C3 6.01 3 5.02 3 4 C2.01 4 1.02 4 0 4 C0 2.68 0 1.36 0 0 Z " fill="#111F0F" transform="translate(15,38)"/>
<path d="M0 0 C6.6 0 13.2 0 20 0 C20 0.99 20 1.98 20 3 C20.99 3 21.98 3 23 3 C23 2.01 23 1.02 23 0 C26.96 0 30.92 0 35 0 C35 0.99 35 1.98 35 3 C35.99 3 36.98 3 38 3 C38 2.01 38 1.02 38 0 C44.6 0 51.2 0 58 0 C58 2.64 58 5.28 58 8 C56.68 8 55.36 8 54 8 C54 9.32 54 10.64 54 12 C52.68 12 51.36 12 50 12 C50 13.32 50 14.64 50 16 C48.68 16 47.36 16 46 16 C46 16.66 46 17.32 46 18 C47.32 18 48.64 18 50 18 C50 19.32 50 20.64 50 22 C48.68 22 47.36 22 46 22 C46 21.01 46 20.02 46 19 C44.68 19 43.36 19 42 19 C42 16.36 42 13.72 42 11 C40.68 11 39.36 11 38 11 C38 10.01 38 9.02 38 8 C37.01 8 36.02 8 35 8 C35 6.68 35 5.36 35 4 C31.04 4 27.08 4 23 4 C23 5.32 23 6.64 23 8 C22.01 8 21.02 8 20 8 C20 8.99 20 9.98 20 11 C18.68 11 17.36 11 16 11 C16 13.64 16 16.28 16 19 C14.68 19 13.36 19 12 19 C12 19.99 12 20.98 12 22 C10.68 22 9.36 22 8 22 C8 20.68 8 19.36 8 18 C9.32 18 10.64 18 12 18 C12 17.34 12 16.68 12 16 C10.68 16 9.36 16 8 16 C8 14.68 8 13.36 8 12 C6.68 12 5.36 12 4 12 C4 10.68 4 9.36 4 8 C2.68 8 1.36 8 0 8 C0 5.36 0 2.72 0 0 Z " fill="#171B08" transform="translate(3,0)"/>
<path d="M0 0 C3.96 0 7.92 0 12 0 C12 1.32 12 2.64 12 4 C12.99 4 13.98 4 15 4 C15 4.99 15 5.98 15 7 C16.32 7 17.64 7 19 7 C19 9.64 19 12.28 19 15 C17.68 15 16.36 15 15 15 C15 17.31 15 19.62 15 22 C14.01 22 13.02 22 12 22 C12 23.32 12 24.64 12 26 C8.04 26 4.08 26 0 26 C0 24.68 0 23.36 0 22 C-0.99 22 -1.98 22 -3 22 C-3 19.69 -3 17.38 -3 15 C-4.32 15 -5.64 15 -7 15 C-7 12.36 -7 9.72 -7 7 C-5.68 7 -4.36 7 -3 7 C-3 6.01 -3 5.02 -3 4 C-2.01 4 -1.02 4 0 4 C0 2.68 0 1.36 0 0 Z " fill="#57AA52" transform="translate(26,4)"/>
<path d="M0 0 C5.94 0 11.88 0 18 0 C18 1.32 18 2.64 18 4 C19.32 4 20.64 4 22 4 C22 5.32 22 6.64 22 8 C21.01 8 20.02 8 19 8 C19 8.99 19 9.98 19 11 C22.63 11 26.26 11 30 11 C30 12.32 30 13.64 30 15 C31.32 15 32.64 15 34 15 C34 17.64 34 20.28 34 23 C28.72 23 23.44 23 18 23 C18 22.01 18 21.02 18 20 C16.68 20 15.36 20 14 20 C14 16.04 14 12.08 14 8 C10.37 8 6.74 8 3 8 C3 8.99 3 9.98 3 11 C2.01 11 1.02 11 0 11 C0 10.01 0 9.02 0 8 C-1.32 8 -2.64 8 -4 8 C-4 6.68 -4 5.36 -4 4 C-2.68 4 -1.36 4 0 4 C0 2.68 0 1.36 0 0 Z " fill="#111F0F" transform="translate(23,41)"/>
<path d="M0 0 C1.32 0 2.64 0 4 0 C4 0.99 4 1.98 4 3 C4.99 3 5.98 3 7 3 C7 2.01 7 1.02 7 0 C13.6 0 20.2 0 27 0 C27 0.99 27 1.98 27 3 C27.99 3 28.98 3 30 3 C30 2.01 30 1.02 30 0 C31.32 0 32.64 0 34 0 C34 1.32 34 2.64 34 4 C33.01 4 32.02 4 31 4 C31 4.99 31 5.98 31 7 C31.99 7 32.98 7 34 7 C34 9.31 34 11.62 34 14 C31.69 14 29.38 14 27 14 C27 13.01 27 12.02 27 11 C27.99 11 28.98 11 30 11 C30 9.68 30 8.36 30 7 C28.68 7 27.36 7 26 7 C26 5.68 26 4.36 26 3 C20.06 3 14.12 3 8 3 C8 4.32 8 5.64 8 7 C6.68 7 5.36 7 4 7 C4 8.32 4 9.64 4 11 C4.99 11 5.98 11 7 11 C7 11.99 7 12.98 7 14 C4.69 14 2.38 14 0 14 C0 11.69 0 9.38 0 7 C0.99 7 1.98 7 3 7 C3 6.01 3 5.02 3 4 C2.01 4 1.02 4 0 4 C0 2.68 0 1.36 0 0 Z " fill="#0B1008" transform="translate(15,38)"/>
<path d="M0 0 C1.32 0 2.64 0 4 0 C4 1.32 4 2.64 4 4 C3.01 4 2.02 4 1 4 C1 7.63 1 11.26 1 15 C1.99 15 2.98 15 4 15 C4 14.01 4 13.02 4 12 C5.32 12 6.64 12 8 12 C8 9.36 8 6.72 8 4 C9.32 4 10.64 4 12 4 C12 6.64 12 9.28 12 12 C11.01 12 10.02 12 9 12 C9 15.63 9 19.26 9 23 C6.03 23 3.06 23 0 23 C0 22.01 0 21.02 0 20 C-0.99 20 -1.98 20 -3 20 C-3 14.72 -3 9.44 -3 4 C-2.01 4 -1.02 4 0 4 C0 2.68 0 1.36 0 0 Z " fill="#0A311A" transform="translate(3,26)"/>
<path d="M0 0 C5.94 0 11.88 0 18 0 C18 1.32 18 2.64 18 4 C19.32 4 20.64 4 22 4 C22 5.32 22 6.64 22 8 C20.68 8 19.36 8 18 8 C18 8.99 18 9.98 18 11 C17.01 11 16.02 11 15 11 C15 10.01 15 9.02 15 8 C11.04 8 7.08 8 3 8 C3 8.99 3 9.98 3 11 C2.01 11 1.02 11 0 11 C0 10.01 0 9.02 0 8 C-1.32 8 -2.64 8 -4 8 C-4 6.68 -4 5.36 -4 4 C-2.68 4 -1.36 4 0 4 C0 2.68 0 1.36 0 0 Z " fill="#CA6A21" transform="translate(23,41)"/>
<path d="M0 0 C1.32 0 2.64 0 4 0 C4 0.99 4 1.98 4 3 C5.32 3 6.64 3 8 3 C8 4.32 8 5.64 8 7 C8.99 7 9.98 7 11 7 C11 11.95 11 16.9 11 22 C10.01 22 9.02 22 8 22 C7.67 19.69 7.34 17.38 7 15 C6.01 15 5.02 15 4 15 C4 12.36 4 9.72 4 7 C2.68 7 1.36 7 0 7 C0 9.31 0 11.62 0 14 C-1.32 14 -2.64 14 -4 14 C-4 13.01 -4 12.02 -4 11 C-5.32 11 -6.64 11 -8 11 C-8 9.68 -8 8.36 -8 7 C-6.68 7 -5.36 7 -4 7 C-4 5.68 -4 4.36 -4 3 C-2.68 3 -1.36 3 0 3 C0 2.01 0 1.02 0 0 Z " fill="#50AD52" transform="translate(49,23)"/>
<path d="M0 0 C1.32 0 2.64 0 4 0 C4 1.32 4 2.64 4 4 C4.99 4 5.98 4 7 4 C7 9.28 7 14.56 7 20 C6.01 20 5.02 20 4 20 C4 20.99 4 21.98 4 23 C1.03 23 -1.94 23 -5 23 C-5 19.37 -5 15.74 -5 12 C-5.99 12 -6.98 12 -8 12 C-8 9.36 -8 6.72 -8 4 C-6.68 4 -5.36 4 -4 4 C-4 6.64 -4 9.28 -4 12 C-3.01 12 -2.02 12 -1 12 C-0.67 14.31 -0.34 16.62 0 19 C0.99 19 1.98 19 3 19 C3 14.05 3 9.1 3 4 C2.01 4 1.02 4 0 4 C0 2.68 0 1.36 0 0 Z " fill="#000000" transform="translate(57,26)"/>
<path d="M0 0 C1.32 0 2.64 0 4 0 C4 0.99 4 1.98 4 3 C5.32 3 6.64 3 8 3 C8 4.32 8 5.64 8 7 C9.32 7 10.64 7 12 7 C12 8.32 12 9.64 12 11 C10.68 11 9.36 11 8 11 C8 11.99 8 12.98 8 14 C6.68 14 5.36 14 4 14 C4 11.69 4 9.38 4 7 C2.68 7 1.36 7 0 7 C0 9.64 0 12.28 0 15 C-1.32 15 -2.64 15 -4 15 C-4 15.99 -4 16.98 -4 18 C-4.99 18 -5.98 18 -7 18 C-7 14.37 -7 10.74 -7 7 C-6.01 7 -5.02 7 -4 7 C-4 5.68 -4 4.36 -4 3 C-2.68 3 -1.36 3 0 3 C0 2.01 0 1.02 0 0 Z " fill="#71B148" transform="translate(11,23)"/>
<path d="M0 0 C2.64 0 5.28 0 8 0 C8 0.99 8 1.98 8 3 C10.64 3 13.28 3 16 3 C16 4.32 16 5.64 16 7 C14.68 7 13.36 7 12 7 C12 6.01 12 5.02 12 4 C10.68 4 9.36 4 8 4 C8 4.99 8 5.98 8 7 C6.68 7 5.36 7 4 7 C4 8.32 4 9.64 4 11 C1.69 11 -0.62 11 -3 11 C-3 9.68 -3 8.36 -3 7 C-2.01 7 -1.02 7 0 7 C0 4.69 0 2.38 0 0 Z " fill="#0D6553" transform="translate(41,19)"/>
<path d="M0 0 C2.64 0 5.28 0 8 0 C8 2.31 8 4.62 8 7 C8.99 7 9.98 7 11 7 C11 8.32 11 9.64 11 11 C8.69 11 6.38 11 4 11 C4 9.68 4 8.36 4 7 C2.68 7 1.36 7 0 7 C0 6.01 0 5.02 0 4 C-1.32 4 -2.64 4 -4 4 C-4 4.99 -4 5.98 -4 7 C-5.32 7 -6.64 7 -8 7 C-8 5.68 -8 4.36 -8 3 C-5.36 3 -2.72 3 0 3 C0 2.01 0 1.02 0 0 Z " fill="#0D6553" transform="translate(15,19)"/>
<path d="M0 0 C1.32 0 2.64 0 4 0 C4 2.64 4 5.28 4 8 C3.01 8 2.02 8 1 8 C1 11.63 1 15.26 1 19 C-1.97 19 -4.94 19 -8 19 C-8 18.01 -8 17.02 -8 16 C-6.35 16 -4.7 16 -3 16 C-3 13.36 -3 10.72 -3 8 C-2.01 8 -1.02 8 0 8 C0 5.36 0 2.72 0 0 Z " fill="#000000" transform="translate(11,30)"/>
<path d="M0 0 C1.32 0 2.64 0 4 0 C4 1.32 4 2.64 4 4 C2.68 4 1.36 4 0 4 C0 5.32 0 6.64 0 8 C-1.32 8 -2.64 8 -4 8 C-4 8.66 -4 9.32 -4 10 C-2.68 10 -1.36 10 0 10 C0 11.32 0 12.64 0 14 C-1.32 14 -2.64 14 -4 14 C-4 13.01 -4 12.02 -4 11 C-5.32 11 -6.64 11 -8 11 C-8 8.36 -8 5.72 -8 3 C-5.36 3 -2.72 3 0 3 C0 2.01 0 1.02 0 0 Z " fill="#050D06" transform="translate(53,8)"/>
<path d="M0 0 C1.32 0 2.64 0 4 0 C4 0.99 4 1.98 4 3 C6.64 3 9.28 3 12 3 C12 5.64 12 8.28 12 11 C10.68 11 9.36 11 8 11 C8 11.99 8 12.98 8 14 C6.68 14 5.36 14 4 14 C4 12.68 4 11.36 4 10 C5.32 10 6.64 10 8 10 C8 9.34 8 8.68 8 8 C6.68 8 5.36 8 4 8 C4 6.68 4 5.36 4 4 C2.68 4 1.36 4 0 4 C0 2.68 0 1.36 0 0 Z " fill="#050D06" transform="translate(7,8)"/>
<path d="M0 0 C0.99 0 1.98 0 3 0 C3 0.99 3 1.98 3 3 C4.32 3 5.64 3 7 3 C7 4.32 7 5.64 7 7 C8.32 7 9.64 7 11 7 C11 8.32 11 9.64 11 11 C9.68 11 8.36 11 7 11 C7 11.99 7 12.98 7 14 C5.68 14 4.36 14 3 14 C3 11.69 3 9.38 3 7 C2.01 7 1.02 7 0 7 C0 4.69 0 2.38 0 0 Z " fill="#5DB150" transform="translate(12,23)"/>
<path d="M0 0 C4.95 0 9.9 0 15 0 C15 1.32 15 2.64 15 4 C13.68 4 12.36 4 11 4 C11 4.99 11 5.98 11 7 C8.36 7 5.72 7 3 7 C3 5.68 3 4.36 3 3 C2.01 3 1.02 3 0 3 C0 2.01 0 1.02 0 0 Z " fill="#B3D141" transform="translate(42,4)"/>
<path d="M0 0 C4.95 0 9.9 0 15 0 C15 0.99 15 1.98 15 3 C14.01 3 13.02 3 12 3 C12 4.32 12 5.64 12 7 C9.36 7 6.72 7 4 7 C4 6.01 4 5.02 4 4 C2.68 4 1.36 4 0 4 C0 2.68 0 1.36 0 0 Z " fill="#B3D141" transform="translate(7,4)"/>
<path d="M0 0 C6.6 0 13.2 0 20 0 C20 2.64 20 5.28 20 8 C18.68 8 17.36 8 16 8 C15.67 6.68 15.34 5.36 15 4 C10.05 3.67 5.1 3.34 0 3 C0 2.01 0 1.02 0 0 Z " fill="#000000" transform="translate(41,0)"/>
<path d="M0 0 C6.6 0 13.2 0 20 0 C20 0.99 20 1.98 20 3 C15.05 3.33 10.1 3.66 5 4 C4.67 5.32 4.34 6.64 4 8 C2.68 8 1.36 8 0 8 C0 5.36 0 2.72 0 0 Z " fill="#000000" transform="translate(3,0)"/>
<path d="M0 0 C1.32 0 2.64 0 4 0 C4 2.64 4 5.28 4 8 C-1.28 8 -6.56 8 -12 8 C-12 7.01 -12 6.02 -12 5 C-8.04 5 -4.08 5 0 5 C0 3.35 0 1.7 0 0 Z " fill="#000000" transform="translate(53,56)"/>
<path d="M0 0 C1.32 0 2.64 0 4 0 C4 1.65 4 3.3 4 5 C7.96 5 11.92 5 16 5 C16 5.99 16 6.98 16 8 C10.72 8 5.44 8 0 8 C0 5.36 0 2.72 0 0 Z " fill="#000000" transform="translate(7,56)"/>
<path d="M0 0 C0.99 0 1.98 0 3 0 C3 1.32 3 2.64 3 4 C4.32 4 5.64 4 7 4 C7 7.63 7 11.26 7 15 C6.01 15 5.02 15 4 15 C3.67 12.69 3.34 10.38 3 8 C2.01 8 1.02 8 0 8 C0 5.36 0 2.72 0 0 Z " fill="#45A04D" transform="translate(53,30)"/>
<path d="M0 0 C2.64 0 5.28 0 8 0 C8 1.32 8 2.64 8 4 C8.99 4 9.98 4 11 4 C11 4.99 11 5.98 11 7 C7.7 7 4.4 7 1 7 C0.67 4.69 0.34 2.38 0 0 Z " fill="#0B7944" transform="translate(41,53)"/>
<path d="M0 0 C2.64 0 5.28 0 8 0 C7.67 2.31 7.34 4.62 7 7 C3.7 7 0.4 7 -3 7 C-3 6.01 -3 5.02 -3 4 C-2.01 4 -1.02 4 0 4 C0 2.68 0 1.36 0 0 Z " fill="#0B7944" transform="translate(15,53)"/>
<path d="M0 0 C5.94 0 11.88 0 18 0 C18 0.99 18 1.98 18 3 C12.06 3 6.12 3 0 3 C0 2.01 0 1.02 0 0 Z " fill="#000000" transform="translate(23,38)"/>
<path d="M0 0 C1.32 0 2.64 0 4 0 C4 0.99 4 1.98 4 3 C5.32 3 6.64 3 8 3 C8 4.32 8 5.64 8 7 C8.99 7 9.98 7 11 7 C11 8.32 11 9.64 11 11 C9.68 11 8.36 11 7 11 C7 9.68 7 8.36 7 7 C5.68 7 4.36 7 3 7 C3 6.01 3 5.02 3 4 C2.01 4 1.02 4 0 4 C0 2.68 0 1.36 0 0 Z " fill="#96B93D" transform="translate(49,23)"/>
<path d="M0 0 C3.96 0 7.92 0 12 0 C12 1.32 12 2.64 12 4 C8.04 4 4.08 4 0 4 C0 2.68 0 1.36 0 0 Z " fill="#A15216" transform="translate(26,45)"/>
<path d="M0 0 C3.96 0 7.92 0 12 0 C12 1.32 12 2.64 12 4 C8.04 4 4.08 4 0 4 C0 2.68 0 1.36 0 0 Z " fill="#084F5B" transform="translate(26,30)"/>
<path d="M0 0 C0.99 0 1.98 0 3 0 C3 5.28 3 10.56 3 16 C2.01 16 1.02 16 0 16 C0 10.72 0 5.44 0 0 Z " fill="#000000" transform="translate(61,30)"/>
<path d="M0 0 C0.99 0 1.98 0 3 0 C3 5.28 3 10.56 3 16 C2.01 16 1.02 16 0 16 C0 10.72 0 5.44 0 0 Z " fill="#000000" transform="translate(0,30)"/>
<path d="M0 0 C1.32 0 2.64 0 4 0 C4 0.99 4 1.98 4 3 C6.64 3 9.28 3 12 3 C12 4.32 12 5.64 12 7 C10.68 7 9.36 7 8 7 C8 6.01 8 5.02 8 4 C6.68 4 5.36 4 4 4 C4 4.99 4 5.98 4 7 C2.68 7 1.36 7 0 7 C0 4.69 0 2.38 0 0 Z " fill="#064B2A" transform="translate(45,19)"/>
<path d="M0 0 C1.32 0 2.64 0 4 0 C4 2.31 4 4.62 4 7 C2.68 7 1.36 7 0 7 C0 6.01 0 5.02 0 4 C-1.32 4 -2.64 4 -4 4 C-4 4.99 -4 5.98 -4 7 C-5.32 7 -6.64 7 -8 7 C-8 5.68 -8 4.36 -8 3 C-5.36 3 -2.72 3 0 3 C0 2.01 0 1.02 0 0 Z " fill="#064B2A" transform="translate(15,19)"/>
<path d="M0 0 C3.96 0 7.92 0 12 0 C12 1.32 12 2.64 12 4 C8.04 4 4.08 4 0 4 C0 2.68 0 1.36 0 0 Z " fill="#10545C" transform="translate(26,15)"/>
<path d="M0 0 C3.3 0 6.6 0 10 0 C10 1.32 10 2.64 10 4 C6.7 4 3.4 4 0 4 C0 2.68 0 1.36 0 0 Z " fill="#000000" transform="translate(27,49)"/>
<path d="M0 0 C1.32 0 2.64 0 4 0 C4 6.6 4 13.2 4 20 C2.35 20 0.7 20 -1 20 C-0.67 18.68 -0.34 17.36 0 16 C0 16.99 0 17.98 0 19 C0.99 19 1.98 19 3 19 C3 14.05 3 9.1 3 4 C2.01 4 1.02 4 0 4 C0 2.68 0 1.36 0 0 Z " fill="#08160A" transform="translate(57,26)"/>
<path d="M0 0 C0.33 1.32 0.66 2.64 1 4 C-0.32 4 -1.64 4 -3 4 C-3 4.99 -3 5.98 -3 7 C-5.64 7 -8.28 7 -11 7 C-11 5.68 -11 4.36 -11 3 C-7.37 3 -3.74 3 0 3 C0 2.01 0 1.02 0 0 Z " fill="#5D9F44" transform="translate(56,4)"/>
<path d="M0 0 C0.33 0.99 0.66 1.98 1 3 C4.63 3 8.26 3 12 3 C12 4.32 12 5.64 12 7 C9.36 7 6.72 7 4 7 C4 6.01 4 5.02 4 4 C2.68 4 1.36 4 0 4 C0 2.68 0 1.36 0 0 Z " fill="#5D9F44" transform="translate(7,4)"/>
<path d="M0 0 C4.95 0 9.9 0 15 0 C15 0.33 15 0.66 15 1 C10.38 1 5.76 1 1 1 C1 1.99 1 2.98 1 4 C1.99 4 2.98 4 4 4 C4 5.32 4 6.64 4 8 C2.68 8 1.36 8 0 8 C0 7.01 0 6.02 0 5 C-0.99 4.67 -1.98 4.34 -3 4 C-2.01 4 -1.02 4 0 4 C0 2.68 0 1.36 0 0 Z " fill="#303811" transform="translate(41,3)"/>
<path d="M0 0 C3.96 0 7.92 0 12 0 C12 0.99 12 1.98 12 3 C8.04 3 4.08 3 0 3 C0 2.01 0 1.02 0 0 Z " fill="#000000" transform="translate(26,0)"/>
<path d="M0 0 C2.31 0 4.62 0 7 0 C7 1.32 7 2.64 7 4 C5.68 4 4.36 4 3 4 C3 4.66 3 5.32 3 6 C2.01 6 1.02 6 0 6 C0 4.02 0 2.04 0 0 Z " fill="#000000" transform="translate(46,12)"/>
<path d="M0 0 C2.31 0 4.62 0 7 0 C7 1.98 7 3.96 7 6 C6.01 6 5.02 6 4 6 C4 5.34 4 4.68 4 4 C2.68 4 1.36 4 0 4 C0 2.68 0 1.36 0 0 Z " fill="#000000" transform="translate(11,12)"/>
<path d="M0 0 C0.99 0 1.98 0 3 0 C3 2.31 3 4.62 3 7 C0.69 7 -1.62 7 -4 7 C-4 6.01 -4 5.02 -4 4 C-2.68 4 -1.36 4 0 4 C0 2.68 0 1.36 0 0 Z " fill="#000000" transform="translate(46,45)"/>
<path d="M0 0 C0.99 0 1.98 0 3 0 C3 1.32 3 2.64 3 4 C4.32 4 5.64 4 7 4 C7 4.99 7 5.98 7 7 C4.69 7 2.38 7 0 7 C0 4.69 0 2.38 0 0 Z " fill="#000000" transform="translate(15,45)"/>
<path d="M0 0 C1.32 0 2.64 0 4 0 C4 2.64 4 5.28 4 8 C2.68 8 1.36 8 0 8 C0 5.36 0 2.72 0 0 Z " fill="#000000" transform="translate(37,53)"/>
<path d="M0 0 C1.32 0 2.64 0 4 0 C4 2.64 4 5.28 4 8 C2.68 8 1.36 8 0 8 C0 5.36 0 2.72 0 0 Z " fill="#000000" transform="translate(23,53)"/>
<path d="M0 0 C1.32 0 2.64 0 4 0 C4 2.64 4 5.28 4 8 C2.68 8 1.36 8 0 8 C0 5.36 0 2.72 0 0 Z " fill="#070F07" transform="translate(49,30)"/>
<path d="M0 0 C1.32 0 2.64 0 4 0 C4 2.64 4 5.28 4 8 C2.68 8 1.36 8 0 8 C0 5.36 0 2.72 0 0 Z " fill="#070F07" transform="translate(11,30)"/>
<path d="M0 0 C3.3 0 6.6 0 10 0 C10 0.99 10 1.98 10 3 C6.7 3 3.4 3 0 3 C0 2.01 0 1.02 0 0 Z " fill="#B3D141" transform="translate(27,4)"/>
<path d="M0 0 C0.33 0.99 0.66 1.98 1 3 C1.99 3.33 2.98 3.66 4 4 C3.01 4 2.02 4 1 4 C1 4.99 1 5.98 1 7 C-0.32 7 -1.64 7 -3 7 C-3 5.68 -3 4.36 -3 3 C-2.01 3 -1.02 3 0 3 C0 2.01 0 1.02 0 0 Z " fill="#343D13" transform="translate(22,4)"/>
<path d="M0 0 C2.31 0 4.62 0 7 0 C7 0.99 7 1.98 7 3 C4.69 3 2.38 3 0 3 C0 2.01 0 1.02 0 0 Z " fill="#57B153" transform="translate(42,53)"/>
<path d="M0 0 C2.31 0 4.62 0 7 0 C7 0.99 7 1.98 7 3 C4.69 3 2.38 3 0 3 C0 2.01 0 1.02 0 0 Z " fill="#57B153" transform="translate(15,53)"/>
<path d="M0 0 C0.99 0 1.98 0 3 0 C3 2.31 3 4.62 3 7 C2.01 7 1.02 7 0 7 C0 4.69 0 2.38 0 0 Z " fill="#07485E" transform="translate(42,19)"/>
<path d="M0 0 C0.99 0 1.98 0 3 0 C3 2.31 3 4.62 3 7 C2.01 7 1.02 7 0 7 C0 4.69 0 2.38 0 0 Z " fill="#07485E" transform="translate(19,19)"/>
</svg>